<?xml version="1.0" encoding="utf-8"?>
<!-- Generator: Adobe Illustrator 22.0.0, SVG Export Plug-In . SVG Version: 6.00 Build 0)  -->
<svg version="1.1" id="Layer_1" xmlns="http://www.w3.org/2000/svg" xmlns:xlink="http://www.w3.org/1999/xlink" x="0px" y="0px"
	 viewBox="0 0 512 512" style="enable-background:new 0 0 512 512;" xml:space="preserve" width="40" height="45">
<style type="text/css">
	.st0{fill:#F18D04;}
</style>
<g>
	<g id="Database-3">
		<path class="st0" d="M145.2,151.1c-11.2-2-21.6-4.4-30.8-7c-4.2-1.3-8.7,1.2-9.9,5.4c-1.3,4.2,1.2,8.7,5.4,9.9
			c0.1,0,0.1,0,0.2,0.1c9.8,2.8,20.6,5.2,32.3,7.3c0.5,0.1,0.9,0.1,1.4,0.1c4.4,0,8-3.6,8-8C151.8,155.1,149,151.8,145.2,151.1z"/>
		<path class="st0" d="M176.5,155.7c-4.4-0.6-8.4,2.4-9.1,6.8c-0.6,4.4,2.4,8.4,6.8,9.1c0.2,0,0.3,0,0.5,0.1c27,3,54.2,4.5,81.3,4.5
			c27.1,0.1,54.2-1.4,81.1-4.4c4.4-0.4,7.7-4.2,7.3-8.6c-0.4-4.4-4.2-7.7-8.6-7.3c-0.2,0-0.3,0-0.5,0.1c-26.3,2.9-52.8,4.4-79.3,4.3
			C229.4,160.1,202.9,158.6,176.5,155.7z"/>
		<path class="st0" d="M176.5,283.7c-4.4-0.6-8.4,2.4-9.1,6.8c-0.6,4.4,2.4,8.4,6.8,9.1c0.2,0,0.3,0,0.5,0.1c27,3,54.2,4.5,81.3,4.5
			c27.1,0.1,54.2-1.4,81.1-4.4c4.4-0.4,7.7-4.2,7.3-8.6s-4.2-7.7-8.6-7.3c-0.2,0-0.3,0-0.5,0.1c-26.3,2.9-52.8,4.4-79.3,4.3
			C229.4,288.1,202.9,286.6,176.5,283.7z"/>
		<path class="st0" d="M335.3,411.7c-26.3,2.9-52.8,4.4-79.3,4.3c-26.6,0.1-53.1-1.4-79.5-4.3c-4.4-0.6-8.4,2.4-9.1,6.8
			c-0.6,4.4,2.4,8.4,6.8,9.1c0.2,0,0.3,0,0.5,0.1c27,3,54.2,4.5,81.3,4.5c27.1,0.1,54.2-1.4,81.1-4.4c4.4-0.4,7.7-4.2,7.3-8.6
			s-4.2-7.7-8.6-7.3C335.6,411.6,335.5,411.7,335.3,411.7z"/>
		<path class="st0" d="M145.2,279.1c-11.2-2-21.6-4.4-30.8-7c-4.2-1.3-8.7,1.2-9.9,5.4c-1.3,4.2,1.2,8.7,5.4,9.9
			c0.1,0,0.1,0,0.2,0.1c9.8,2.8,20.6,5.2,32.3,7.3c0.5,0.1,0.9,0.1,1.4,0.1c4.4,0,8-3.6,8-8C151.8,283.1,149,279.8,145.2,279.1z"/>
		<path class="st0" d="M145.2,407.1c-11.2-2-21.6-4.4-30.8-7c-4.2-1.3-8.7,1.2-9.9,5.4c-1.3,4.2,1.2,8.7,5.4,9.9
			c0.1,0,0.1,0,0.2,0.1c9.8,2.8,20.6,5.2,32.3,7.3c0.5,0.1,0.9,0.1,1.4,0.1c4.4,0,8-3.6,8-8C151.8,411.1,149,407.8,145.2,407.1z"/>
		<path class="st0" d="M393.1,25.5c-45.4-6.7-91.2-9.9-137.1-9.5c-45.9-0.4-91.7,2.7-137.1,9.5C63.2,34.8,56,46.7,56,56v384
			c0,36.8,100.6,56,200,56s200-19.2,200-56V56C456,46.7,448.8,34.8,393.1,25.5z M440,312c0,16.3-71.7,40-184,40S72,328.3,72,312
			v-97.5c36.2,21.7,125.6,25.5,184,25.5s147.8-3.8,184-25.5V312z M440,192c0,13.3-57.1,32-184,32S72,205.3,72,192V86.5
			c36.2,21.7,125.6,25.5,184,25.5s147.8-3.8,184-25.5V192z M72,56.6C77.9,48.1,138.6,32,256,32s178.1,16.1,184,24.6V64
			c0,13.3-57.1,32-184,32S72,77.3,72,64V56.6z M256,480c-112.3,0-184-23.7-184-40V335.4c32.2,21.5,108.4,32.6,184,32.6
			s151.8-11.1,184-32.6V440C440,456.3,368.3,480,256,480z"/>
	</g>
</g>
</svg>
