<?xml version="1.0" encoding="utf-8"?>
<!-- Generator: Adobe Illustrator 22.0.0, SVG Export Plug-In . SVG Version: 6.00 Build 0)  -->
<svg version="1.1" id="Layer_1" xmlns="http://www.w3.org/2000/svg" xmlns:xlink="http://www.w3.org/1999/xlink" x="0px" y="0px"
	 viewBox="0 0 512 451.8" style="enable-background:new 0 0 512 451.8;" xml:space="preserve" height="39" width="44">
<style type="text/css">
	.st0{fill:#D70060;}
</style>
<g>
	<path class="st0" d="M453.9,451.8H58.1c-32,0-58.1-26.1-58.1-58.1V58.1C0,26.1,26.1,0,58.1,0h395.7c32,0,58.1,26.1,58.1,58.1v335.5
		C512,425.7,485.9,451.8,453.9,451.8z M58.1,17.3c-22.5,0-40.8,18.3-40.8,40.8v335.5c0,22.5,18.3,40.8,40.8,40.8h395.7
		c22.5,0,40.8-18.3,40.8-40.8V58.1c0-22.5-18.3-40.8-40.8-40.8H58.1z"/>
	<path class="st0" d="M433.9,319.6h-136c-4.8,0-8.7-3.9-8.7-8.7c0-4.8,3.9-8.7,8.7-8.7h136c4.8,0,8.7,3.9,8.7,8.7
		C442.5,315.7,438.6,319.6,433.9,319.6z"/>
	<path class="st0" d="M433.9,382.2h-136c-4.8,0-8.7-3.9-8.7-8.7c0-4.8,3.9-8.7,8.7-8.7h136c4.8,0,8.7,3.9,8.7,8.7
		C442.5,378.3,438.6,382.2,433.9,382.2z"/>
	<path class="st0" d="M433.9,194.4h-136c-4.8,0-8.7-3.9-8.7-8.7c0-4.8,3.9-8.7,8.7-8.7h136c4.8,0,8.7,3.9,8.7,8.7
		C442.5,190.6,438.6,194.4,433.9,194.4z"/>
	<path class="st0" d="M433.9,257h-136c-4.8,0-8.7-3.9-8.7-8.7c0-4.8,3.9-8.7,8.7-8.7h136c4.8,0,8.7,3.9,8.7,8.7
		C442.5,253.1,438.6,257,433.9,257z"/>
	<path class="st0" d="M503.3,115.9H8.7c-4.8,0-8.7-3.9-8.7-8.7c0-4.8,3.9-8.7,8.7-8.7h494.7c4.8,0,8.7,3.9,8.7,8.7
		C512,112,508.1,115.9,503.3,115.9z"/>
	<path class="st0" d="M124.8,85.1c-14.9,0-26.9-12.1-26.9-26.9s12.1-26.9,26.9-26.9s26.9,12.1,26.9,26.9S139.7,85.1,124.8,85.1z
		 M124.8,48.5c-5.3,0-9.6,4.3-9.6,9.6s4.3,9.6,9.6,9.6c5.3,0,9.6-4.3,9.6-9.6S130.1,48.5,124.8,48.5z"/>
	<path class="st0" d="M62.4,85.1c-14.9,0-26.9-12.1-26.9-26.9s12.1-26.9,26.9-26.9c14.9,0,26.9,12.1,26.9,26.9S77.3,85.1,62.4,85.1z
		 M62.4,48.5c-5.3,0-9.6,4.3-9.6,9.6s4.3,9.6,9.6,9.6c5.3,0,9.6-4.3,9.6-9.6S67.7,48.5,62.4,48.5z"/>
	<path class="st0" d="M187.2,85.1c-14.9,0-26.9-12.1-26.9-26.9s12.1-26.9,26.9-26.9s26.9,12.1,26.9,26.9S202,85.1,187.2,85.1z
		 M187.2,48.5c-5.3,0-9.6,4.3-9.6,9.6s4.3,9.6,9.6,9.6c5.3,0,9.6-4.3,9.6-9.6S192.5,48.5,187.2,48.5z"/>
	<path class="st0" d="M232.5,382.2H75.4c-4.8,0-8.7-3.9-8.7-8.7V185.8c0-4.8,3.9-8.7,8.7-8.7h157.1c4.8,0,8.7,3.9,8.7,8.7v187.8
		C241.2,378.3,237.3,382.2,232.5,382.2z M84.1,364.9h139.7V194.4H84.1V364.9z"/>
</g>
</svg>
