<?xml version="1.0" encoding="utf-8"?>
<!-- Generator: Adobe Illustrator 24.0.2, SVG Export Plug-In . SVG Version: 6.00 Build 0)  -->
<svg version="1.1" id="Capa_1" xmlns="http://www.w3.org/2000/svg" xmlns:xlink="http://www.w3.org/1999/xlink" x="0px" y="0px"
	 viewBox="0 0 100 93.365" enable-background="new 0 0 100 93.365" xml:space="preserve" width="46" height="43">
<g>
	<g>
		<path fill="#32742C" d="M94.897,0H5.098C2.287,0,0,2.287,0,5.098v63.42c0,2.814,2.287,5.104,5.098,5.104h26.371v7.637h-9.806
			c-3.336,0-6.05,2.714-6.05,6.05v4.103c0,1.079,0.875,1.953,1.953,1.953h64.869c1.079,0,1.953-0.875,1.953-1.953v-4.103
			c0-3.336-2.716-6.05-6.055-6.05h-9.801v-7.637h26.365c2.814,0,5.103-2.289,5.103-5.104V5.098C100,2.287,97.711,0,94.897,0
			L94.897,0z M80.481,87.309v2.149H19.519v-2.149c0-1.182,0.962-2.144,2.144-2.144h56.67C79.517,85.165,80.481,86.127,80.481,87.309
			L80.481,87.309z M64.625,81.259H35.375v-7.637h29.251V81.259z M94.897,69.715H5.098c-0.646,0-1.192-0.548-1.192-1.197v-3.927
			h37.321c1.079,0,1.953-0.875,1.953-1.953c0-1.079-0.875-1.953-1.953-1.953H3.906V5.098c0-0.646,0.546-1.192,1.192-1.192h89.799
			c0.649,0,1.197,0.546,1.197,1.192v55.587H58.767c-1.079,0-1.953,0.875-1.953,1.953c0,1.079,0.875,1.953,1.953,1.953h37.327v3.927
			C96.094,69.167,95.545,69.715,94.897,69.715L94.897,69.715z"/>
		<path fill="#32742C" d="M87.511,39.741H61.042c-1.079,0-1.953,0.875-1.953,1.953v12.158c0,1.079,0.875,1.953,1.953,1.953h26.469
			c1.079,0,1.953-0.875,1.953-1.953V41.694C89.464,40.615,88.59,39.741,87.511,39.741L87.511,39.741z M85.558,51.899H62.995v-8.252
			h22.563L85.558,51.899L85.558,51.899z"/>
		<path fill="#32742C" d="M51.298,26.26h-0.278c-0.377-1.222-0.869-2.406-1.473-3.544l0.191-0.192
			c0.694-0.688,1.076-1.607,1.076-2.588s-0.382-1.9-1.07-2.583l-3.36-3.36c-0.688-0.694-1.607-1.076-2.588-1.076c0,0,0,0,0,0
			c-0.981,0-1.9,0.382-2.583,1.07l-0.196,0.196c-1.133-0.6-2.318-1.092-3.545-1.47v-0.273c0-2.017-1.639-3.658-3.653-3.658h-4.761
			c-2.014,0-3.653,1.641-3.653,3.658v0.273c-1.227,0.379-2.412,0.87-3.545,1.47l-0.196-0.196c-0.69-0.69-1.608-1.07-2.584-1.07
			c-0.003,0-0.005,0-0.007,0c-0.977,0.002-1.892,0.384-2.572,1.069l-3.373,3.367c-0.688,0.688-1.066,1.605-1.066,2.583
			c0,0.978,0.379,1.895,1.066,2.582l0.2,0.2c-0.602,1.132-1.093,2.316-1.47,3.542h-0.277c-2.014,0-3.653,1.639-3.653,3.653v4.761
			c0,2.017,1.639,3.658,3.653,3.658h0.277c0.377,1.224,0.868,2.407,1.469,3.539l-0.204,0.203c-1.411,1.422-1.411,3.737,0.007,5.166
			l3.371,3.365c1.418,1.418,3.733,1.421,5.165,0l0.196-0.196c1.135,0.601,2.32,1.092,3.545,1.468v0.276
			c0,2.014,1.639,3.653,3.653,3.653h4.761c2.014,0,3.653-1.639,3.653-3.653v-0.276c1.225-0.376,2.411-0.867,3.545-1.468l0.196,0.196
			c0.688,0.688,1.605,1.066,2.583,1.066c0.978,0,1.895-0.379,2.583-1.066l3.366-3.366c0.69-0.69,1.07-1.608,1.07-2.585
			c0-0.977-0.38-1.895-1.07-2.585l-0.196-0.196c0.603-1.136,1.095-2.319,1.471-3.54h0.278c2.014,0,3.653-1.641,3.653-3.658v-4.761
			C54.951,27.898,53.312,26.26,51.298,26.26L51.298,26.26z M51.045,34.426h-1.524c-0.914,0-1.705,0.633-1.906,1.525
			c-0.412,1.835-1.139,3.584-2.159,5.198c-0.488,0.772-0.376,1.779,0.27,2.425l1.08,1.08l-3.01,3.01l-1.077-1.077
			c-0.646-0.646-1.653-0.758-2.425-0.27c-1.605,1.015-3.356,1.739-5.202,2.153c-0.892,0.2-1.526,0.992-1.526,1.906v1.524h-4.254
			v-1.524c0-0.914-0.634-1.706-1.526-1.906c-1.847-0.414-3.597-1.139-5.202-2.153c-0.772-0.488-1.779-0.376-2.425,0.27l-1.077,1.077
			l-3.014-3.009l1.082-1.077c0.649-0.647,0.762-1.658,0.271-2.431c-1.016-1.599-1.741-3.347-2.157-5.195
			c-0.2-0.891-0.992-1.525-1.906-1.525h-1.524v-4.26h1.524c0.914,0,1.705-0.633,1.906-1.525c0.415-1.848,1.141-3.595,2.157-5.194
			c0.49-0.772,0.379-1.781-0.268-2.428l-1.082-1.083l3.012-3.007l1.077,1.077c0.646,0.646,1.653,0.758,2.425,0.27
			c1.603-1.013,3.354-1.74,5.207-2.16c0.89-0.202,1.521-0.993,1.521-1.905v-1.524h4.254v1.524c0,0.912,0.631,1.703,1.521,1.905
			c1.853,0.42,3.605,1.147,5.207,2.16c0.771,0.488,1.779,0.376,2.425-0.27l1.077-1.077l3.007,3.007l-1.08,1.086
			c-0.643,0.646-0.754,1.651-0.267,2.421c1.02,1.614,1.746,3.363,2.159,5.198c0.2,0.891,0.992,1.525,1.906,1.525h1.524
			L51.045,34.426L51.045,34.426z"/>
		<path fill="#32742C" d="M42.811,26.508c-0.071-0.591-0.419-1.133-0.929-1.441l-9.434-5.686c-0.62-0.374-1.396-0.374-2.016,0
			l-9.439,5.686c-0.578,0.348-0.945,0.998-0.945,1.673v11.112c0,0.685,0.359,1.32,0.945,1.673l9.439,5.686
			c0.612,0.369,1.404,0.368,2.016,0l9.434-5.686c0.586-0.354,0.945-0.988,0.945-1.673V26.74
			C42.826,26.663,42.82,26.585,42.811,26.508L42.811,26.508z M31.439,23.334l5.651,3.406l-5.651,3.406l-5.654-3.406L31.439,23.334z
			 M23.953,30.196l5.533,3.333v6.552l-5.533-3.333V30.196z M38.92,36.748l-5.528,3.332v-6.551l5.528-3.331V36.748z"/>
		<path fill="#32742C" d="M69.812,16.751h17.7c1.079,0,1.953-0.875,1.953-1.953s-0.875-1.953-1.953-1.953h-17.7
			c-1.079,0-1.953,0.875-1.953,1.953S68.733,16.751,69.812,16.751z"/>
		<path fill="#32742C" d="M61.042,16.751h0.011c1.079,0,1.948-0.875,1.948-1.953s-0.88-1.953-1.959-1.953
			c-1.079,0-1.953,0.875-1.953,1.953S59.964,16.751,61.042,16.751L61.042,16.751z"/>
		<path fill="#32742C" d="M69.806,25.211H87.5c1.079,0,1.953-0.875,1.953-1.953s-0.875-1.953-1.953-1.953H69.806
			c-1.079,0-1.953,0.875-1.953,1.953S68.728,25.211,69.806,25.211z"/>
		<path fill="#32742C" d="M61.037,25.211h0.005c1.079,0,1.95-0.875,1.95-1.953s-0.877-1.953-1.956-1.953s-1.953,0.875-1.953,1.953
			S59.958,25.211,61.037,25.211z"/>
		<path fill="#32742C" d="M69.795,33.67h17.7c1.079,0,1.953-0.875,1.953-1.953s-0.875-1.953-1.953-1.953h-17.7
			c-1.079,0-1.953,0.875-1.953,1.953S68.716,33.67,69.795,33.67z"/>
		<path fill="#32742C" d="M61.026,33.67h0.011c1.079,0,1.948-0.875,1.948-1.953s-0.88-1.953-1.959-1.953
			c-1.079,0-1.953,0.875-1.953,1.953S59.947,33.67,61.026,33.67L61.026,33.67z"/>
		<path fill="#32742C" d="M49.997,60.685c-1.079,0-1.953,0.875-1.953,1.953c0,1.079,0.875,1.953,1.953,1.953h0.011
			c1.079,0,1.948-0.875,1.948-1.953C51.956,61.56,51.076,60.685,49.997,60.685L49.997,60.685z"/>
	</g>
</g>
</svg>
