<?xml version="1.0" encoding="utf-8"?>
<!-- Generator: Adobe Illustrator 24.0.2, SVG Export Plug-In . SVG Version: 6.00 Build 0)  -->
<svg version="1.1" id="Capa_1" xmlns="http://www.w3.org/2000/svg" xmlns:xlink="http://www.w3.org/1999/xlink" x="0px" y="0px"
	 viewBox="0 0 100 100" enable-background="new 0 0 100 100" xml:space="preserve" height="43" width="43">
<g>
	<g>
		<path fill="#113F8C" d="M25,45c-3.682,0-6.667,2.985-6.667,6.667c0,3.682,2.985,6.667,6.667,6.667s6.667-2.985,6.667-6.667
			C31.667,47.985,28.682,45,25,45z M25,55c-1.841,0-3.333-1.492-3.333-3.333c0-1.841,1.492-3.333,3.333-3.333
			c1.841,0,3.333,1.492,3.333,3.333C28.334,53.508,26.841,55,25,55z"/>
	</g>
</g>
<g>
	<g>
		<path fill="#113F8C" d="M65.5,43.333h27.833c3.682,0,6.667-2.985,6.667-6.667V13.333c0-3.682-2.985-6.667-6.667-6.667H61.667v-5
			C61.667,0.746,60.92,0,60,0H1.667C0.756-0.01,0.01,0.719,0,1.63c0,0.012,0,0.024,0,0.037v85c0.001,0.717,0.46,1.353,1.14,1.58
			l35,11.667c0.17,0.057,0.347,0.087,0.527,0.087c0.92,0,1.667-0.746,1.667-1.667v-10h5.927c1.182,2.056,3.369,3.326,5.74,3.333
			h43.333c3.682,0,6.667-2.985,6.667-6.667V68.333c0-3.682-2.985-6.667-6.667-6.667H65.5l-3.833-2.559V45.892L65.5,43.333z
			 M93.333,10c1.841,0,3.333,1.492,3.333,3.333V20h-50v-6.667C46.667,11.492,48.159,10,50,10H93.333z M35,96.02L3.333,85.465V3.98
			L35,14.535L35,96.02L35,96.02z M43.334,68.333V85h-5V13.333c-0.001-0.717-0.46-1.353-1.14-1.58l-25.258-8.42h46.398v3.333H50
			c-3.682,0-6.667,2.985-6.667,6.667v23.333c0,3.682,2.985,6.667,6.667,6.667h3.333v5C53.333,49.254,54.079,50,55,50
			c0.329,0,0.651-0.097,0.925-0.28l2.408-1.607v8.773l-2.408-1.607c-0.766-0.511-1.801-0.304-2.311,0.461
			c-0.183,0.274-0.28,0.596-0.28,0.925v5H50C46.318,61.667,43.334,64.651,43.334,68.333z M64.075,64.72
			C64.349,64.902,64.671,64.999,65,65h28.333c1.841,0,3.333,1.492,3.333,3.333V85c0,1.841-1.492,3.333-3.333,3.333H50
			c-1.841,0-3.333-1.492-3.333-3.333V68.333C46.667,66.492,48.159,65,50,65h5c0.92,0,1.667-0.746,1.667-1.667V59.78L64.075,64.72z
			 M56.667,45.22v-3.553C56.667,40.746,55.92,40,55,40h-5c-1.841,0-3.333-1.492-3.333-3.333V23.333h50v13.333
			c0,1.841-1.492,3.333-3.333,3.333H65c-0.329,0.001-0.651,0.098-0.925,0.28L56.667,45.22z"/>
	</g>
</g>
<g>
	<g>
		<rect x="51.667" y="33.333" fill="#113F8C" width="40" height="3.333"/>
	</g>
</g>
<g>
	<g>
		<rect x="55" y="26.667" fill="#113F8C" width="3.333" height="3.333"/>
	</g>
</g>
<g>
	<g>
		<rect x="61.667" y="26.667" fill="#113F8C" width="30" height="3.333"/>
	</g>
</g>
<g>
	<g>
		<rect x="50" y="13.333" fill="#113F8C" width="3.333" height="3.333"/>
	</g>
</g>
<g>
	<g>
		<rect x="56.667" y="13.333" fill="#113F8C" width="3.333" height="3.333"/>
	</g>
</g>
<g>
	<g>
		<rect x="63.333" y="13.333" fill="#113F8C" width="3.333" height="3.333"/>
	</g>
</g>
<g>
	<g>
		<path fill="#113F8C" d="M57.845,71.178l-2.357-2.357l-3.333,3.333c-0.651,0.651-0.651,1.706,0,2.357l3.333,3.333l2.357-2.357
			l-2.155-2.155L57.845,71.178z"/>
	</g>
</g>
<g>
	<g>
		<path fill="#113F8C" d="M71.178,72.155l-3.333-3.333l-2.357,2.357l2.155,2.155l-2.155,2.155l2.357,2.357l3.333-3.333
			C71.829,73.861,71.829,72.806,71.178,72.155z"/>
	</g>
</g>
<g>
	<g>
		
			<rect x="56.395" y="71.664" transform="matrix(0.3164 -0.9486 0.9486 0.3164 -27.4092 108.6257)" fill="#113F8C" width="10.541" height="3.333"/>
	</g>
</g>
<g>
	<g>
		<rect x="75" y="71.667" fill="#113F8C" width="3.333" height="3.333"/>
	</g>
</g>
<g>
	<g>
		<rect x="51.667" y="81.667" fill="#113F8C" width="3.333" height="3.333"/>
	</g>
</g>
<g>
	<g>
		<rect x="58.333" y="81.667" fill="#113F8C" width="33.333" height="3.333"/>
	</g>
</g>
<g>
	<g>
		<rect x="81.667" y="71.667" fill="#113F8C" width="3.333" height="3.333"/>
	</g>
</g>
<g>
	<g>
		<rect x="88.333" y="71.667" fill="#113F8C" width="3.333" height="3.333"/>
	</g>
</g>
</svg>
